<svg xmlns="http://www.w3.org/2000/svg" viewBox="0 0 140 140" width="140" height="140">
  <!-- 身体 -->
  <ellipse cx="70" cy="95" rx="45" ry="38" fill="#1b1b1f"/>
  <!-- 头 -->
  <circle cx="70" cy="60" r="38" fill="#1b1b1f"/>
  <!-- 耳朵 -->
  <polygon points="40,35 30,5 62,28" fill="#1b1b1f"/>
  <polygon points="100,35 110,5 78,28" fill="#1b1b1f"/>
  <polygon points="44,30 38,14 56,27" fill="#ffb6c1"/>
  <polygon points="96,30 102,14 84,27" fill="#ffb6c1"/>
  <!-- 眼睛 -->
  <circle cx="56" cy="58" r="6" fill="#fff"/>
  <circle cx="84" cy="58" r="6" fill="#fff"/>
  <circle cx="57" cy="59" r="3" fill="#1b1b1f"/>
  <circle cx="85" cy="59" r="3" fill="#1b1b1f"/>
  <!-- 鼻子 -->
  <polygon points="70,68 65,73 75,73" fill="#ffb6c1"/>
  <!-- 胡须 -->
  <line x1="20" y1="62" x2="48" y2="66" stroke="#fff" stroke-width="1.5"/>
  <line x1="20" y1="70" x2="48" y2="72" stroke="#fff" stroke-width="1.5"/>
  <line x1="120" y1="62" x2="92" y2="66" stroke="#fff" stroke-width="1.5"/>
  <line x1="120" y1="70" x2="92" y2="72" stroke="#fff" stroke-width="1.5"/>
  <!-- 尾巴 -->
  <path d="M115 110 q30 -10 25 -40" stroke="#1b1b1f" stroke-width="10" fill="none" stroke-linecap="round"/>
</svg>
